<?xml version="1.0" standalone="no"?>
<!DOCTYPE svg PUBLIC "-//W3C//DTD SVG 20010904//EN"
 "http://www.w3.org/TR/2001/REC-SVG-20010904/DTD/svg10.dtd">
<svg version="1.0" xmlns="http://www.w3.org/2000/svg"
 width="2000.000000pt" height="2000.000000pt" viewBox="0 0 2000.000000 2000.000000"
 preserveAspectRatio="xMidYMid meet">

<g transform="translate(0.000000,2000.000000) scale(0.100000,-0.100000)"
fill="#000000" stroke="none">
<path d="M11190 18339 c-267 -34 -515 -216 -631 -462 -94 -201 -96 -455 -6
-659 133 -300 462 -497 792 -474 143 10 290 57 393 127 l47 32 128 -15 c114
-13 127 -12 122 2 -2 8 -16 59 -31 112 l-26 97 40 79 c65 125 86 214 86 367 1
148 -13 215 -70 334 -121 256 -354 426 -634 460 -94 12 -116 12 -210 0z m509
-515 l69 -57 -210 -261 c-116 -144 -221 -273 -234 -289 l-23 -27 -205 146
-205 147 41 56 c22 31 46 65 53 75 13 18 21 14 137 -69 68 -49 128 -92 134
-97 8 -6 70 63 190 212 98 121 179 220 181 220 2 0 34 -25 72 -56z"/>
<path d="M12863 18229 c-121 -35 -165 -236 -77 -355 l22 -30 -30 -61 c-24 -50
-30 -76 -33 -144 -2 -46 -7 -92 -10 -102 -11 -28 0 -31 45 -13 22 9 59 16 81
16 33 0 40 3 37 18 -3 14 -14 17 -60 17 l-57 0 35 65 c52 94 93 143 113 134 9
-4 99 -10 201 -15 159 -6 201 -11 298 -37 63 -17 116 -33 119 -36 3 -3 0 -25
-6 -50 -22 -89 -14 -122 45 -189 19 -20 34 -46 34 -56 0 -11 -12 -52 -26 -91
-24 -68 -46 -170 -36 -170 2 0 23 21 45 46 23 26 59 55 82 65 83 38 178 15
205 -50 7 -17 15 -31 19 -31 12 0 101 154 138 241 58 134 58 269 0 318 -13 10
-13 16 -1 39 15 28 18 81 8 120 -7 23 -7 23 -25 -7 -10 -17 -24 -31 -31 -31
-7 0 -25 23 -40 50 -65 118 -261 215 -503 250 -102 14 -194 12 -312 -7 -93
-15 -109 -15 -145 -2 -23 8 -46 22 -52 32 -9 16 -5 23 24 48 l34 29 -54 -1
c-30 0 -70 -5 -87 -10z"/>
<path d="M10549 18103 c-155 -175 -234 -404 -214 -619 5 -51 11 -74 20 -74 10
0 13 27 13 123 -1 140 16 221 68 335 37 80 104 180 153 226 17 17 31 36 31 43
0 26 -29 12 -71 -34z"/>
<path d="M13204 17539 c-9 -15 14 -29 49 -29 15 0 46 -10 67 -22 39 -23 57
-21 47 6 -15 38 -145 74 -163 45z"/>
<path d="M13169 17364 c-21 -25 -17 -93 6 -110 10 -8 22 -14 26 -14 20 0 39
35 39 70 0 59 -41 90 -71 54z"/>
<path d="M12814 17334 c-25 -38 -9 -98 27 -102 33 -4 51 18 51 63 0 64 -47 88
-78 39z"/>
<path d="M10370 17297 c0 -37 31 -117 44 -117 23 0 24 11 5 53 -10 23 -19 52
-19 65 0 13 -6 22 -15 22 -9 0 -15 -9 -15 -23z"/>
<path d="M13247 17013 c-16 -18 -61 -48 -100 -68 l-71 -36 -16 21 c-11 14 -22
19 -33 14 -10 -3 -17 -9 -15 -13 13 -27 83 -121 91 -121 5 0 36 14 69 32 83
44 133 128 111 184 -7 19 -10 18 -36 -13z"/>
<path d="M12960 16263 c-296 -29 -403 -59 -552 -155 -55 -35 -95 -72 -144
-131 -119 -146 -277 -398 -437 -699 l-57 -106 237 -135 c131 -74 268 -152 306
-172 l67 -37 0 -56 c0 -61 -57 -893 -86 -1255 -17 -213 -17 -218 2 -232 41
-32 284 -146 379 -178 216 -74 404 -105 691 -114 377 -11 680 38 1008 165
l119 46 -7 307 -6 307 -49 193 c-27 107 -73 271 -101 364 -29 94 -54 177 -57
185 -3 12 29 23 159 54 438 103 578 139 578 148 0 6 -6 16 -13 22 -7 6 -39
101 -71 211 -72 249 -203 643 -249 752 -65 153 -171 274 -292 333 -44 22 -149
49 -387 102 l-327 71 -80 -40 c-203 -105 -446 -96 -520 20 -25 39 -26 39 -111
30z"/>
<path d="M2473 14680 c-97 -20 -204 -104 -250 -199 l-28 -56 0 -410 0 -410 27
-57 c34 -73 103 -142 176 -176 l57 -27 475 -3 475 -3 111 -110 c61 -61 114
-107 116 -103 3 5 14 62 24 128 18 117 18 118 54 141 78 49 139 138 159 233
18 86 15 713 -4 787 -21 80 -77 161 -145 207 -98 67 -112 68 -690 67 -283 -1
-534 -5 -557 -9z m203 -614 c28 -28 34 -42 34 -75 0 -53 -22 -97 -60 -116
-108 -56 -221 57 -165 165 22 43 53 60 108 60 42 0 54 -5 83 -34z m404 5 c104
-103 -22 -267 -147 -191 -36 21 -50 43 -53 80 -5 54 1 73 34 106 30 30 40 34
86 34 43 0 56 -4 80 -29z m408 1 c57 -53 55 -130 -4 -181 -89 -78 -225 8 -193
122 23 85 134 118 197 59z"/>
<path d="M5728 14493 c-9 -10 -40 -70 -71 -135 -33 -70 -64 -122 -78 -131 -13
-9 -87 -25 -164 -36 -151 -22 -165 -29 -165 -84 0 -24 18 -46 101 -125 55 -53
105 -104 110 -114 6 -12 2 -64 -15 -165 -23 -132 -24 -150 -11 -170 29 -44 53
-39 201 38 l138 73 143 -75 c139 -72 143 -74 170 -59 37 21 40 58 14 202 -12
62 -21 121 -21 132 0 11 46 66 110 131 115 116 130 144 94 179 -18 18 -30 21
-139 36 -44 6 -103 15 -132 21 l-52 10 -70 138 c-39 76 -78 141 -87 145 -29
11 -61 6 -76 -11z"/>
<path d="M7002 14503 c-8 -3 -42 -65 -77 -138 -35 -73 -71 -138 -81 -143 -11
-5 -80 -18 -154 -28 -112 -15 -139 -22 -157 -41 -40 -39 -31 -59 87 -177 67
-68 110 -118 110 -131 0 -11 -9 -80 -21 -153 -17 -103 -20 -138 -11 -157 22
-47 50 -42 200 35 l140 72 141 -72 c146 -74 162 -77 196 -40 17 19 17 26 -8
167 -21 127 -23 152 -12 173 7 14 56 65 109 114 88 82 96 93 96 127 0 20 -7
42 -15 49 -8 6 -74 20 -147 31 -73 11 -143 24 -155 29 -15 6 -43 51 -84 132
-34 68 -68 131 -77 141 -15 16 -52 21 -80 10z"/>
<path d="M8257 14493 c-8 -10 -40 -70 -70 -135 -33 -70 -64 -122 -78 -131 -13
-9 -86 -24 -162 -35 -76 -11 -145 -26 -153 -32 -7 -7 -14 -28 -14 -48 0 -31
10 -45 101 -131 55 -53 105 -104 110 -114 7 -12 2 -64 -16 -164 -23 -131 -24
-148 -10 -169 29 -45 49 -41 199 37 l141 72 142 -74 c139 -72 143 -74 170 -59
37 21 39 56 13 200 -11 62 -20 122 -20 133 0 12 45 65 110 132 84 84 110 117
110 137 0 44 -36 63 -146 77 -55 7 -121 17 -147 23 l-48 10 -69 138 c-38 75
-76 140 -85 144 -30 11 -62 6 -78 -11z"/>
<path d="M9527 14498 c-9 -7 -43 -70 -76 -141 -43 -89 -67 -130 -83 -137 -13
-5 -84 -18 -158 -29 -112 -17 -138 -24 -152 -42 -32 -39 -22 -58 92 -174 63
-64 110 -119 110 -131 0 -10 -9 -79 -21 -152 -24 -147 -21 -174 26 -186 20 -5
56 9 164 65 l138 71 141 -72 c146 -74 163 -78 197 -40 17 19 17 26 -8 167 -21
127 -23 151 -12 173 8 14 57 65 109 115 88 81 96 92 96 126 0 20 -6 42 -14 49
-8 6 -75 20 -148 31 -73 10 -143 23 -155 29 -15 6 -43 51 -84 132 -34 68 -68
131 -77 141 -18 20 -61 22 -85 5z"/>
<path d="M17101 14029 c-74 -14 -171 -86 -171 -126 0 -5 21 -24 46 -42 l45
-33 27 25 c39 35 65 47 109 47 73 0 114 -53 89 -114 -7 -18 -35 -56 -60 -85
-50 -56 -66 -87 -66 -127 0 -23 3 -24 65 -24 58 0 65 2 65 20 0 11 24 48 54
83 74 88 89 120 89 192 0 104 -52 164 -162 185 -60 11 -69 11 -130 -1z"/>
<path d="M17122 13437 c-48 -51 -10 -137 60 -137 39 1 64 17 77 53 13 32 -3
83 -29 97 -34 18 -85 12 -108 -13z"/>
<path d="M15137 12914 c-57 -18 -115 -74 -166 -158 -38 -64 -81 -175 -81 -211
0 -35 -16 -39 -39 -9 -23 29 -23 29 -40 -3 -14 -27 -14 -73 -1 -107 11 -31 -3
-35 -38 -10 -21 14 -22 14 -22 -6 0 -13 23 -44 58 -79 56 -55 58 -56 97 -48
22 5 64 9 93 8 46 -1 52 1 52 19 0 13 -9 22 -25 26 -14 4 -25 9 -23 13 29 64
101 183 128 212 41 44 107 60 162 39 18 -7 65 -14 103 -16 82 -3 119 -15 158
-52 37 -34 60 -80 83 -161 19 -68 75 -141 109 -141 14 0 16 -6 12 -32 -7 -46
10 -193 28 -234 l15 -35 32 37 c64 73 150 92 231 50 l47 -23 43 46 c86 93 91
106 84 249 -11 243 -80 395 -226 496 -78 55 -168 70 -236 42 -32 -14 -39 -13
-97 10 -186 76 -437 112 -541 78z"/>
<path d="M3785 12874 c-121 -20 -203 -54 -303 -129 -42 -30 -70 -44 -80 -40
-118 46 -258 10 -357 -90 -98 -100 -150 -219 -210 -487 -59 -264 -97 -362
-189 -483 -63 -83 -79 -121 -79 -186 0 -111 74 -212 197 -270 97 -45 178 -62
276 -57 138 7 225 59 280 169 30 58 63 201 75 322 4 37 11 67 16 67 5 0 9 -4
9 -8 0 -12 149 -171 172 -183 18 -10 19 -7 17 58 -1 37 -8 102 -16 143 -23
126 -20 120 -51 114 -68 -14 -185 49 -233 125 -23 36 -29 57 -29 101 0 89 44
130 139 130 63 0 98 -13 137 -52 l32 -30 53 64 c29 34 64 88 77 117 39 86 41
213 5 306 -6 17 -1 18 58 12 139 -13 309 -75 444 -162 55 -35 58 -38 37 -46
-12 -5 -22 -16 -22 -25 0 -14 7 -15 42 -10 37 6 44 4 75 -26 18 -17 33 -35 33
-40 0 -4 -16 -10 -35 -14 -66 -12 -87 -87 -41 -141 20 -23 28 -26 42 -17 26
15 36 63 23 103 -10 30 -9 36 7 48 17 13 22 10 52 -24 58 -69 70 -106 79 -248
l9 -130 21 90 c45 191 39 300 -26 466 -99 251 -226 387 -411 439 -74 20 -260
34 -325 24z"/>
<path d="M3926 12325 c-52 -18 -74 -41 -58 -57 10 -10 19 -8 44 7 21 12 50 18
80 18 40 -1 48 2 48 17 0 30 -52 37 -114 15z"/>
<path d="M4003 12233 c-53 -10 -70 -92 -30 -138 42 -49 86 6 65 81 -8 32 -7
40 8 51 17 12 17 13 -2 12 -10 -1 -29 -4 -41 -6z"/>
<path d="M15258 12203 c-10 -2 -18 -13 -18 -24 0 -16 7 -19 48 -19 26 0 68 -8
95 -17 38 -14 49 -15 60 -4 10 10 7 16 -11 31 -40 33 -119 48 -174 33z"/>
<path d="M14937 12133 c-23 -27 -31 -70 -17 -102 19 -46 54 -49 90 -6 16 20
17 90 0 110 -17 20 -53 19 -73 -2z"/>
<path d="M15284 12089 c-22 -24 -25 -89 -5 -113 17 -20 55 -21 75 -1 8 9 18
31 22 50 13 69 -49 112 -92 64z"/>
<path d="M15096 12045 c-21 -30 -67 -84 -102 -120 -36 -36 -62 -71 -58 -77 18
-29 154 -65 154 -40 0 4 11 71 25 147 13 76 23 140 21 142 -1 2 -20 -22 -40
-52z"/>
<path d="M15945 11946 c-59 -27 -125 -119 -125 -176 0 -36 18 -21 34 28 10 29
32 64 56 87 34 33 47 39 80 39 44 -2 56 19 18 30 -29 7 -28 8 -63 -8z"/>
<path d="M3976 11885 c-18 -49 30 -122 107 -162 30 -15 31 -15 59 18 41 49 50
67 37 75 -6 3 -18 -1 -27 -9 -14 -14 -19 -14 -56 5 -23 11 -57 36 -77 55 -31
29 -37 32 -43 18z"/>
<path d="M15053 11693 c-7 -2 -13 -12 -13 -20 0 -9 6 -13 15 -9 8 3 26 0 40
-6 30 -13 45 -3 24 16 -17 17 -49 26 -66 19z"/>
<path d="M14960 11659 c14 -6 66 -42 117 -80 69 -53 95 -80 107 -110 21 -51
20 -67 -3 -112 l-19 -38 24 -11 c64 -30 88 80 35 163 -52 82 -209 200 -265
198 -19 0 -19 -1 4 -10z"/>
<path d="M15719 11404 c-81 -84 -201 -134 -320 -134 -67 0 -68 -1 -60 -22 9
-25 63 -46 122 -47 90 -2 191 65 264 175 20 30 35 57 33 60 -2 2 -20 -12 -39
-32z"/>
<path d="M8110 11369 c-14 -5 -33 -20 -42 -32 -16 -20 -18 -71 -18 -655 0
-651 0 -660 39 -689 13 -10 580 -12 2577 -13 l2561 0 27 26 26 27 0 639 c0
439 -3 646 -11 660 -27 51 110 48 -2606 47 -1627 0 -2537 -4 -2553 -10z m3077
-374 c133 -40 195 -220 119 -349 -25 -42 -109 -126 -127 -126 -24 0 -4 -19 44
-42 96 -47 161 -61 266 -56 149 8 243 53 415 198 48 41 129 110 179 152 154
130 285 194 460 224 114 20 268 14 382 -16 81 -21 236 -88 268 -117 21 -20 22
-46 2 -63 -12 -10 -25 -5 -72 23 -211 126 -480 151 -714 65 -131 -48 -212
-104 -435 -302 -212 -187 -337 -242 -534 -233 -123 5 -203 29 -298 88 -35 22
-67 37 -72 34 -4 -3 -43 -10 -85 -16 -171 -23 -330 21 -680 189 -128 62 -270
123 -320 137 -97 28 -242 42 -318 31 -51 -8 -59 -22 -28 -50 35 -32 74 -136
79 -212 5 -86 -14 -152 -60 -208 -38 -46 -118 -86 -173 -86 -93 0 -184 82
-205 185 -25 122 32 255 146 337 24 17 44 35 44 40 0 10 -81 50 -150 74 -77
27 -338 27 -460 1 -221 -47 -389 -109 -611 -224 -150 -78 -179 -84 -179 -40 0
62 429 250 741 324 101 24 134 27 289 28 167 0 179 -1 255 -28 44 -16 107 -45
140 -65 59 -37 61 -37 100 -24 56 20 219 27 298 13 110 -19 212 -58 447 -171
247 -119 365 -163 482 -179 69 -10 198 -5 198 6 0 3 -10 19 -22 35 -117 165
-78 367 81 424 46 17 48 17 108 -1z"/>
<path d="M11082 10924 c-47 -24 -82 -89 -82 -150 0 -55 31 -130 74 -181 l27
-33 37 19 c112 58 162 183 109 275 -41 73 -105 100 -165 70z"/>
<path d="M9484 10741 c-154 -111 -186 -307 -64 -388 40 -28 72 -29 127 -4 90
42 128 165 85 279 -22 57 -80 141 -98 142 -6 0 -29 -13 -50 -29z"/>
<path d="M6601 11344 c-132 -28 -291 -125 -371 -227 -85 -106 -139 -232 -154
-360 l-8 -58 27 27 27 27 247 -7 c246 -6 434 -25 453 -44 18 -18 3 -47 -35
-65 -25 -13 -70 -21 -138 -24 -87 -5 -99 -8 -93 -22 17 -40 16 -69 -4 -83 -14
-10 -22 -28 -24 -58 -3 -41 -6 -46 -35 -54 -26 -8 -34 -17 -42 -50 -19 -74
-40 -86 -150 -86 -45 0 -81 -4 -81 -8 0 -16 115 -119 174 -157 289 -184 697
-113 902 158 191 253 193 589 4 841 -155 207 -435 308 -699 250z"/>
<path d="M3570 11254 c-80 -13 -99 -24 -161 -100 -34 -41 -73 -80 -88 -86 -14
-5 -95 -29 -180 -54 -235 -67 -332 -121 -367 -203 -63 -151 -377 -1064 -490
-1426 l-46 -150 6 -147 c8 -203 97 -1031 112 -1047 2 -3 84 8 181 22 97 15
177 26 179 25 1 -2 24 -71 50 -153 118 -378 134 -442 134 -544 0 -57 -5 -78
-32 -132 -24 -47 -41 -67 -61 -74 -35 -12 -50 6 -42 50 3 17 7 68 10 115 l6
85 -30 -79 c-33 -86 -84 -171 -106 -180 -13 -5 -15 -53 -15 -308 0 -438 -18
-644 -105 -1199 l-45 -286 -119 -334 c-216 -606 -979 -2850 -1064 -3125 l-24
-81 46 -30 c117 -76 450 -213 520 -213 12 0 36 34 78 113 749 1391 1336 2623
1563 3282 40 117 117 376 161 545 12 47 25 88 28 92 3 4 3 -61 -1 -145 -30
-684 -56 -1847 -65 -2903 l-6 -872 29 -6 c73 -15 235 -26 410 -26 222 0 252 4
259 34 16 71 182 1343 240 1836 92 795 145 1383 165 1845 8 175 18 275 36 370
55 293 96 644 115 980 11 204 7 764 -7 812 -6 21 -5 21 128 20 177 -3 208 13
208 101 0 102 -62 352 -205 832 -144 482 -149 510 -125 738 17 156 11 148 73
102 36 -28 62 -40 85 -40 104 0 364 167 722 465 173 145 445 385 445 394 0 12
-166 311 -176 317 -5 3 -190 -112 -410 -257 -220 -144 -404 -258 -408 -253 -4
5 -36 74 -70 154 -78 179 -223 471 -280 565 -99 161 -207 282 -285 319 -19 9
-61 21 -93 27 -45 8 -67 19 -98 48 -87 82 -176 128 -293 149 l-52 9 0 -51 c0
-29 6 -59 13 -68 6 -9 46 -24 88 -33 68 -15 85 -24 157 -81 45 -36 115 -99
157 -140 70 -71 81 -88 173 -273 105 -211 170 -386 197 -536 23 -123 17 -298
-14 -375 -67 -171 -114 -401 -114 -560 0 -126 9 -178 54 -288 37 -93 38 -135
3 -167 -50 -46 -211 -93 -414 -121 -122 -16 -427 -22 -518 -9 -52 7 -53 8 -47
34 24 92 87 419 105 541 29 198 28 320 -4 510 -37 215 -86 464 -162 815 -36
165 -83 383 -105 484 l-39 184 24 51 c23 49 41 98 34 95 -2 -1 -14 -3 -28 -5z
m-583 -1894 c-5 -282 -13 -328 -80 -491 -46 -111 -128 -281 -133 -276 -8 7
-33 360 -36 487 l-2 125 43 85 c54 105 168 316 190 350 l16 25 3 -25 c3 -14 2
-140 -1 -280z"/>
<path d="M15876 11006 c7 -18 -35 -49 -151 -114 -162 -91 -282 -117 -385 -82
-57 19 -120 77 -120 109 1 9 19 25 42 36 94 45 51 46 -277 9 -195 -22 -180 -6
-284 -295 -45 -129 -98 -290 -116 -359 -19 -69 -70 -262 -114 -429 -44 -168
-85 -307 -91 -311 -6 -4 -26 -58 -44 -121 -18 -63 -36 -124 -40 -136 -6 -19
-4 -23 13 -23 11 0 22 8 25 18 3 9 17 57 31 105 l26 88 47 -52 c25 -28 54 -62
65 -75 10 -13 22 -24 27 -24 5 0 48 50 96 110 48 61 91 110 96 110 4 0 8 -15
8 -34 0 -43 -87 -1761 -95 -1882 l-7 -91 60 -26 c45 -21 59 -32 56 -45 -2 -9
-49 -244 -103 -522 -172 -871 -299 -1558 -360 -1955 -67 -430 -66 -419 -65
-940 0 -284 8 -629 18 -845 20 -454 62 -1238 81 -1550 8 -129 15 -254 15 -277
l0 -43 310 0 310 0 5 22 c2 13 16 149 30 303 58 657 69 1011 46 1459 -30 575
10 1100 104 1376 50 146 358 985 365 993 7 8 225 -25 235 -35 7 -7 150 -600
231 -958 86 -382 182 -869 244 -1240 78 -468 122 -716 235 -1330 57 -311 108
-590 112 -620 8 -54 9 -55 48 -62 22 -4 176 -11 343 -14 l302 -7 0 139 c0 305
-67 1595 -106 2024 -8 91 -43 408 -79 705 -35 297 -75 633 -87 747 l-23 206
75 143 c41 78 86 151 101 161 20 15 102 28 421 68 218 27 406 53 417 59 34 18
61 62 61 98 0 46 -19 79 -80 138 -29 28 -155 157 -281 287 -216 223 -229 239
-229 274 0 20 32 200 70 399 39 199 70 379 70 399 0 51 -31 93 -81 107 -39 12
-42 11 -247 -90 -190 -94 -213 -109 -284 -177 l-78 -74 36 -112 c40 -128 43
-191 9 -196 -26 -4 -64 36 -105 108 -30 52 -31 53 -25 20 3 -19 8 -66 11 -105
6 -86 -7 -119 -53 -123 -30 -3 -31 -2 -62 83 -49 136 -55 220 -25 378 7 38 -9
54 -20 20 -36 -121 -31 -260 14 -386 17 -48 28 -92 25 -97 -13 -20 -54 -10
-79 20 l-25 31 -24 -38 c-50 -81 -71 -145 -72 -218 l0 -70 116 -160 c140 -192
211 -314 244 -416 47 -149 43 -254 -16 -378 -40 -86 -181 -226 -294 -293 -111
-65 -107 -65 -131 -10 -12 26 -38 81 -57 124 l-36 76 39 26 c86 57 162 152
200 251 18 46 23 80 23 145 0 108 -22 167 -115 313 -127 197 -154 281 -145
442 3 63 12 112 32 165 15 41 26 84 26 95 0 11 -3 54 -7 96 -5 69 -3 85 29
180 19 57 87 207 151 333 89 176 118 242 126 290 9 62 50 373 95 726 l25 195
-20 155 c-12 85 -41 295 -65 465 -24 171 -46 339 -50 375 -4 36 -14 80 -21 99
-8 19 -13 35 -12 36 2 0 30 9 62 19 79 24 206 91 346 183 63 42 117 79 120 82
3 4 31 27 63 50 31 24 57 49 57 55 0 14 -150 263 -240 396 -177 265 -339 455
-466 546 -148 106 -298 153 -550 174 -159 13 -154 13 -148 -4z"/>
<path d="M8160 9200 c-23 -23 -26 -58 -6 -86 14 -19 53 -19 2541 -22 l2526 -2
24 24 c31 32 31 50 0 81 l-24 25 -2521 0 c-2507 0 -2520 0 -2540 -20z"/>
<path d="M8180 8893 c-42 -15 -53 -70 -20 -103 20 -20 33 -20 2543 -20 2003 0
2527 3 2540 13 9 6 19 24 22 39 5 21 1 33 -19 52 l-25 26 -2513 -1 c-1382 0
-2520 -3 -2528 -6z"/>
<path d="M8157 8552 c-21 -23 -22 -51 -1 -80 l15 -22 1298 0 c1245 0 1299 1
1314 18 20 22 22 73 5 90 -9 9 -315 12 -1313 12 -1249 0 -1303 -1 -1318 -18z"/>
<path d="M2428 7992 c-21 -29 -38 -55 -38 -58 0 -7 43 -43 52 -44 9 0 30 105
26 132 -3 20 -8 15 -40 -30z"/>
<path d="M8157 7852 c-23 -25 -21 -58 3 -82 20 -20 33 -20 2541 -20 1615 0
2527 3 2539 10 26 14 34 57 15 86 l-15 24 -2534 0 c-2441 0 -2533 -1 -2549
-18z"/>
<path d="M8157 7532 c-22 -24 -21 -54 1 -81 l17 -21 2535 2 2534 3 16 28 c13
24 13 30 0 55 l-16 27 -2535 3 c-2447 2 -2536 1 -2552 -16z"/>
<path d="M8156 7178 c-21 -29 -20 -51 2 -77 l17 -21 2535 2 2534 3 16 28 c13
24 13 30 0 55 l-16 27 -2536 3 -2537 2 -15 -22z"/>
<path d="M16779 6953 c-24 -28 -14 -213 11 -213 5 0 6 37 3 88 -4 58 -2 96 6
110 14 26 -2 38 -20 15z"/>
<path d="M8157 6862 c-21 -23 -22 -51 -1 -80 l15 -22 1544 0 1544 0 15 22 c21
30 20 61 -2 81 -17 16 -140 17 -1559 17 -1479 0 -1541 -1 -1556 -18z"/>
<path d="M16503 6785 c-6 -22 -14 -53 -18 -70 l-6 -30 21 21 c17 17 21 30 18
70 l-3 49 -12 -40z"/>
<path d="M7388 4764 c-214 -107 -388 -196 -388 -199 0 -6 636 -1286 648 -1303
6 -9 108 37 405 183 l397 196 -330 659 c-182 363 -333 660 -338 659 -4 0 -181
-88 -394 -195z m176 -179 c83 -39 86 -158 6 -200 -113 -58 -224 80 -138 173
41 43 80 51 132 27z"/>
<path d="M10513 4110 c-113 -23 -173 -96 -173 -212 0 -144 65 -283 215 -462
95 -113 437 -381 570 -445 83 -41 179 -66 208 -55 13 5 22 -5 38 -42 52 -122
125 -415 145 -577 l6 -57 -96 93 c-56 54 -96 101 -96 113 0 10 -14 46 -30 78
-103 202 -316 320 -642 355 -155 17 -252 14 -297 -8 -79 -41 -77 -115 6 -216
101 -125 311 -258 484 -309 154 -44 350 -56 414 -23 11 5 30 19 42 30 l22 20
39 -31 c22 -18 66 -60 99 -95 l60 -64 6 -78 c4 -43 7 -109 7 -147 l0 -68 -285
0 -285 0 0 -219 c0 -349 25 -519 99 -675 47 -99 92 -152 162 -191 l54 -30 220
0 c211 0 222 1 265 23 120 63 198 197 246 422 12 55 17 155 21 373 l5 297
-192 0 -193 0 7 43 c7 46 100 422 117 474 9 27 18 35 52 44 73 19 156 70 212
131 165 178 285 533 285 845 0 201 -56 303 -165 303 -78 0 -150 -63 -250 -215
-159 -243 -236 -495 -239 -780 -1 -167 9 -218 52 -266 l27 -30 -62 -247 c-34
-136 -64 -259 -67 -274 -4 -22 -11 -28 -31 -28 -24 0 -25 2 -25 69 0 283 -72
676 -169 925 -27 71 -28 78 -15 116 38 111 41 264 8 400 -99 402 -550 755
-881 690z"/>
<path d="M1300 1753 c-48 -54 -167 -238 -244 -377 -61 -109 -73 -146 -47 -146
5 0 44 55 87 123 42 67 84 130 93 140 15 17 16 17 28 1 18 -25 16 -69 -8 -160
-55 -205 -16 -279 220 -413 128 -72 205 -101 222 -84 29 29 -42 143 -116 186
-70 40 -102 73 -122 125 -15 41 -15 55 2 238 25 259 12 342 -62 391 -19 13
-23 11 -53 -24z"/>
<path d="M3855 1588 c-18 -54 -28 -169 -32 -385 -6 -247 -5 -253 14 -253 18 0
21 9 26 107 4 58 7 129 7 157 1 135 61 77 113 -107 45 -161 104 -203 301 -217
118 -8 291 -1 314 14 21 13 13 34 -20 59 -61 46 -101 60 -177 64 -89 4 -149
28 -184 74 -14 19 -49 88 -77 154 -60 140 -100 214 -146 271 -47 58 -128 94
-139 62z"/>
<path d="M14207 1263 c-15 -14 -6 -38 25 -70 l32 -33 -35 10 c-18 6 -51 10
-71 10 -31 0 -38 -4 -38 -19 0 -48 49 -66 159 -58 l76 6 -24 -19 c-13 -11 -35
-23 -50 -27 -14 -3 -31 -12 -38 -18 -18 -19 -194 -79 -336 -115 -93 -24 -131
-38 -138 -52 -16 -29 7 -84 49 -116 l35 -27 573 -3 c570 -2 574 -2 594 18 26
26 26 30 -54 264 -56 165 -63 182 -89 190 -24 9 -32 6 -70 -32 -23 -23 -56
-44 -73 -48 -27 -5 -38 0 -82 40 -56 49 -87 59 -172 54 -53 -3 -55 -4 -58 -33
-4 -33 -28 -65 -48 -65 -8 0 -23 23 -35 50 -12 28 -35 62 -51 75 -28 24 -67
33 -81 18z m63 -13 c20 -11 54 -62 65 -98 6 -21 5 -22 -12 -14 -34 19 -113 94
-113 108 0 16 33 19 60 4z m9 -106 c36 -14 40 -19 26 -27 -9 -5 -46 -7 -82 -5
-49 3 -69 9 -79 23 -8 10 -14 23 -14 28 0 14 98 2 149 -19z"/>
<path d="M16486 1202 c-5 -9 3 -27 24 -53 l32 -40 -29 8 c-15 4 -44 8 -63 8
-28 0 -36 -4 -38 -22 -6 -38 35 -55 130 -53 46 1 88 1 93 1 13 -2 -56 -40 -73
-41 -7 0 -20 -6 -27 -14 -20 -19 -228 -92 -354 -123 -58 -14 -112 -30 -118
-36 -36 -27 2 -112 63 -143 37 -18 64 -19 604 -15 363 2 569 7 578 13 22 18
13 60 -51 253 -54 160 -68 192 -90 205 -24 14 -27 12 -76 -33 -66 -62 -93 -63
-161 -2 l-52 46 -86 -3 -87 -3 -3 -30 c-4 -30 -27 -65 -44 -65 -5 0 -18 21
-29 48 -20 46 -64 102 -81 102 -5 0 2 -10 16 -22 24 -22 68 -99 61 -106 -5 -5
-87 52 -106 74 -10 11 -19 28 -21 39 -3 15 -6 17 -12 7z m52 -103 c39 -12 72
-26 72 -30 0 -13 -147 -11 -171 1 -10 6 -19 20 -19 30 0 26 26 26 118 -1z"/>
</g>
</svg>
